<svg width="367" height="60" viewBox="0 0 367 60" fill="none" xmlns="http://www.w3.org/2000/svg">
<path d="M142.783 49.1308H148.159C148.591 49.1308 148.831 48.8908 148.831 48.4588V35.2108C148.831 30.9388 152.287 28.4428 155.935 28.4428C157.039 28.4428 157.855 28.6348 158.575 28.6348C158.911 28.6348 159.151 28.4908 159.151 28.0588V22.7308C159.151 22.3468 159.007 22.1068 158.575 22.0108C158.047 21.9148 157.519 21.8188 156.751 21.8188C153.535 21.8188 150.367 23.3548 148.543 26.2348L148.399 22.8748C148.399 22.3948 148.063 22.2028 147.679 22.2028H142.783C142.351 22.2028 142.111 22.4428 142.111 22.8748V48.4588C142.111 48.8908 142.351 49.1308 142.783 49.1308Z" fill="white"/>
<path d="M121.373 48.984C130.013 48.984 135.629 43.176 135.629 35.016C135.629 26.808 130.013 21 121.373 21C112.733 21 107.117 26.808 107.117 35.016C107.117 43.176 112.733 48.984 121.373 48.984ZM114.077 35.016C114.077 30.36 117.053 27.144 121.373 27.144C125.693 27.144 128.669 30.36 128.669 35.016C128.669 39.624 125.693 42.84 121.373 42.84C117.053 42.84 114.077 39.624 114.077 35.016Z" fill="white"/>
<path d="M76.672 48.5514H82.336C82.72 48.5514 83.008 48.3114 83.008 47.8794V37.0314H88.192C98.224 37.0314 103.312 32.1354 103.312 23.6874C103.312 15.2874 98.224 10.3914 88.192 10.3914H76.672C76.24 10.3914 76 10.6314 76 11.0634V47.8794C76 48.3114 76.24 48.5514 76.672 48.5514ZM87.952 30.5034H83.008V16.8714H87.952C93.136 16.8714 96.064 19.0314 96.064 23.5434C96.064 28.3914 93.136 30.5034 87.952 30.5034Z" fill="white"/>
<path d="M43.2109 51.4657C44.6046 53.457 44.1148 56.2323 41.9077 57.2845C39.1897 58.5802 36.2687 59.432 33.2577 59.797C28.7749 60.3405 24.2287 59.7886 20.0153 58.1894C15.8018 56.5903 12.0489 53.9923 9.08365 50.622C7.09193 48.3582 5.49614 45.7922 4.3514 43.0304C3.4218 40.7877 4.93372 38.4004 7.31601 37.8422C9.69829 37.284 12.037 38.7837 13.1342 40.9503C13.8404 42.3446 14.7229 43.6504 15.7647 44.8345C17.7811 47.1263 20.333 48.8929 23.1982 49.9804C26.0634 51.0678 29.1548 51.4431 32.2031 51.0735C33.778 50.8826 35.3168 50.4958 36.7844 49.9264C39.0647 49.0417 41.8171 49.4744 43.2109 51.4657Z" fill="#1DAFDD"/>
<path d="M40.8332 8.25928C41.7564 6.00331 44.3434 4.90118 46.4157 6.16484C49.1578 7.83702 51.6074 9.96468 53.6499 12.4628C56.6211 16.0967 58.6359 20.3981 59.5093 24.972C60.3827 29.5458 60.0867 34.2456 58.6485 38.6396C57.6695 41.631 56.1824 44.4154 54.2607 46.8786C52.7544 48.8093 49.9331 48.6911 48.2553 46.909C46.5367 45.0835 46.6946 42.2124 48.065 40.1095C48.9388 38.7688 49.6374 37.3146 50.1396 35.7804C51.1176 32.7924 51.3188 29.5966 50.7249 26.4864C50.131 23.3761 48.7609 20.4512 46.7405 17.9801C45.65 16.6464 44.3888 15.4679 42.9947 14.4727C41.0182 13.0618 39.9101 10.5152 40.8332 8.25928Z" fill="#B146EC"/>
<path d="M4.80597 31.9494C2.34765 32.3457 -0.00283024 30.6674 2.55798e-06 28.1771C0.00367216 24.9512 0.561121 21.7378 1.65904 18.6797C3.26703 14.201 5.98198 10.2012 9.55089 7.05303C13.1198 3.9049 17.4265 1.71091 22.0697 0.675534C25.24 -0.0314155 28.4967 -0.182506 31.6966 0.217604C34.1667 0.526468 35.5371 3.06937 34.8363 5.45965C34.1355 7.84992 31.6194 9.16324 29.1329 9.04113C27.4248 8.95724 25.7061 9.10218 24.0233 9.47744C20.8659 10.1815 17.9373 11.6734 15.5105 13.8141C13.0836 15.9549 11.2375 18.6747 10.144 21.7203C9.56124 23.3435 9.2024 25.0312 9.07181 26.737C8.88171 29.2202 7.26428 31.553 4.80597 31.9494Z" fill="#2A6EF4"/>
<path d="M178.752 49.376C181.824 49.376 184.8 48.08 186.72 44.528C186.864 44.336 186.912 44.144 186.912 44C186.912 43.76 186.768 43.568 186.528 43.424L182.448 41.6C182.064 41.408 181.728 41.552 181.536 41.936C181.008 42.848 180.384 43.232 179.52 43.232C177.408 43.232 176.496 41.792 176.496 38.864V27.968H182.88C183.312 27.968 183.552 27.68 183.552 27.296V22.592C183.552 22.16 183.312 21.92 182.88 21.92H176.496V14.672C176.496 14.288 176.208 14 175.824 14H170.4C169.968 14 169.728 14.288 169.728 14.672V21.92H165.792C165.36 21.92 165.12 22.16 165.12 22.592V27.296C165.12 27.68 165.36 27.968 165.792 27.968H169.728V38.432C169.728 45.728 172.944 49.376 178.752 49.376Z" fill="white"/>
<path d="M204.309 48.984C208.053 48.984 211.173 47.4 213.093 44.76L213.285 47.784C213.285 48.264 213.573 48.456 214.005 48.456H218.853C219.285 48.456 219.573 48.216 219.573 47.784V22.2C219.573 21.768 219.285 21.528 218.853 21.528H214.005C213.573 21.528 213.285 21.72 213.285 22.2L213.093 25.224C211.173 22.584 208.053 21 204.309 21C196.629 21 191.733 26.712 191.733 35.016C191.733 43.272 196.629 48.984 204.309 48.984ZM198.693 35.016C198.693 30.36 201.669 27.144 205.989 27.144C210.309 27.144 213.285 30.36 213.285 35.016C213.285 39.624 210.309 42.84 205.989 42.84C201.669 42.84 198.693 39.624 198.693 35.016Z" fill="white"/>
<path d="M229.228 48.976H234.604C235.036 48.976 235.276 48.736 235.276 48.304V10.672C235.276 10.24 235.036 10 234.604 10H229.228C228.796 10 228.556 10.24 228.556 10.672V48.304C228.556 48.736 228.796 48.976 229.228 48.976Z" fill="white"/>
<path d="M246.03 48.9251H258.702C271.374 48.9251 277.998 41.8211 277.998 29.8691C277.998 17.8211 271.374 10.7651 258.702 10.7651H246.03C245.598 10.7651 245.358 11.0051 245.358 11.4371V48.2531C245.358 48.6851 245.598 48.9251 246.03 48.9251ZM257.934 42.3011H252.366V17.3891H257.934C266.382 17.3891 270.702 21.8531 270.702 29.8691C270.702 37.8371 266.382 42.3011 257.934 42.3011Z" fill="white"/>
<path d="M297.755 48.984C306.395 48.984 312.011 43.176 312.011 35.016C312.011 26.808 306.395 21 297.755 21C289.115 21 283.499 26.808 283.499 35.016C283.499 43.176 289.115 48.984 297.755 48.984ZM290.459 35.016C290.459 30.36 293.435 27.144 297.755 27.144C302.075 27.144 305.051 30.36 305.051 35.016C305.051 39.624 302.075 42.84 297.755 42.84C293.435 42.84 290.459 39.624 290.459 35.016Z" fill="white"/>
<path d="M329.991 49.376C333.063 49.376 336.04 48.08 337.96 44.528C338.104 44.336 338.151 44.144 338.151 44C338.151 43.76 338.007 43.568 337.767 43.424L333.688 41.6C333.304 41.408 332.967 41.552 332.775 41.936C332.247 42.848 331.623 43.232 330.759 43.232C328.647 43.232 327.735 41.792 327.735 38.864V27.968H334.119C334.551 27.968 334.791 27.68 334.791 27.296V22.592C334.791 22.16 334.551 21.92 334.119 21.92H327.735V14.672C327.735 14.288 327.447 14 327.063 14H321.639C321.207 14 320.967 14.288 320.967 14.672V21.92H317.031C316.599 21.92 316.359 22.16 316.359 22.592V27.296C316.359 27.68 316.599 27.968 317.031 27.968H320.967V38.432C320.967 45.728 324.183 49.376 329.991 49.376Z" fill="white"/>
<path d="M355.418 49.376C361.61 49.376 366.074 46.208 366.074 41.264C366.074 36.8 363.866 33.968 357.242 32.336L355.994 32C353.018 31.28 351.818 30.56 351.818 29.312C351.818 27.92 353.258 27.392 354.986 27.392C357.29 27.392 358.682 28.448 359.642 30.128C359.786 30.416 359.978 30.56 360.218 30.56C360.314 30.56 360.41 30.56 360.506 30.512L365.258 28.976C365.546 28.928 365.738 28.736 365.738 28.496C365.738 28.4 365.69 28.256 365.642 28.16C364.01 23.6 360.314 21.392 355.13 21.392C349.034 21.392 344.858 24.704 344.858 29.312C344.858 33.44 347.354 36.608 353.834 38.432L355.13 38.816C357.962 39.632 359.114 40.256 359.114 41.408C359.114 42.944 357.434 43.376 355.178 43.376C352.874 43.376 351.002 42.656 349.754 40.496C349.658 40.208 349.418 40.016 349.13 40.016L348.938 40.064L344.186 41.36C343.85 41.456 343.658 41.648 343.658 41.936C343.658 42.032 343.658 42.08 343.706 42.176C345.434 46.88 349.562 49.376 355.418 49.376Z" fill="white"/>
</svg>
